<svg version="1.0"
    xmlns="http://www.w3.org/2000/svg" width="50px" height="50px" viewBox="0 0 100 100">

    <g transform="translate(0.000000,100.000000) scale(0.100000,-0.100000)" fill="#dc965a" stroke="none">
        <path d="M411 895 c-213 -47 -352 -260 -307 -474 29 -137 116 -244 241 -297
l35 -14 0 45 c0 41 -2 45 -25 45 -42 0 -74 22 -94 66 -11 23 -25 45 -31 49 -5
3 -10 10 -10 16 0 19 23 8 61 -31 54 -54 88 -55 112 -2 9 20 13 38 8 40 -43
15 -100 53 -118 81 -29 43 -30 112 -3 166 13 26 20 59 20 97 0 53 2 58 23 58
12 0 38 -10 57 -21 50 -31 190 -31 240 0 19 11 45 21 58 21 20 0 22 -4 22 -60
0 -41 6 -72 20 -97 27 -52 26 -120 -3 -164 -18 -28 -75 -67 -120 -82 -7 -2 -4
-13 6 -27 13 -18 17 -46 17 -107 0 -100 6 -103 96 -45 99 64 156 147 179 261
46 218 -93 430 -311 476 -82 17 -90 17 -173 0z"/>
    </g>
</svg>
